{"title":"Funny Pics Compilation Part 10","uid":15981749,"size":200713841,"categoryP":"video","categoryS":"other","magnet":"?xt=urn:btih:c9caae034f98af0b3fd66a350666890cabbcfba7&amp;dn=Funny+Pics+Compilation+Part+10&amp;tr=udp%3A%2F%2Ftracker.leechers-paradise.org%3A6969&amp;tr=udp%3A%2F%2Fzer0day.ch%3A1337&amp;tr=udp%3A%2F%2Fopen.demonii.com%3A1337&amp;tr=udp%3A%2F%2Ftracker.coppersurfer.tk%3A6969&amp;tr=udp%3A%2F%2Fexodus.desync.com%3A6969","seeders":5,"leechers":0,"uploader":"nico1899","files":3,"time":1475906683,"description":"Funny Pics Compilation Part 10\r\n\r\nScreenshots\r\n    \nhttp://imgprix.com/video/funny-pics-compilation-part-10\r\n\r\nFormat                                   : MPEG-4\r\nFormat profile                           : Base Media / Version 2\r\nCodec ID                                 : mp42 (mp41/isom)\r\nFile size                                : 191 MiB\r\nDuration                                 : 12 min 7 s\r\nOverall bit rate                         : 2 207 kb/s\r\nEncoded date                             : UTC 2016-10-08 03:16:11\r\nTagged date                              : UTC 2016-10-08 03:16:11\r\n\r\nVideo\r\nID                                       : 1\r\nFormat                                   : AVC\r\nFormat/Info                              : Advanced Video Codec\r\nFormat profile                           :   \r\nFormat settings, CABAC                   : No\r\nFormat settings, ReFrames                : 2 frames\r\nFormat settings, GOP                     : M=1, N=30\r\nCodec ID                                 : avc1\r\nCodec ID/Info                            : Advanced Video Coding\r\nDuration                                 : 12 min 7 s\r\nSource duration                          : 12 min 7 s\r\nBit rate                                 : 2 011 kb/s\r\nWidth                                    : 1 920 pixels\r\nHeight                                   : 1 080 pixels\r\nDisplay aspect ratio                     : 16:9\r\nFrame rate mode                          : Constant\r\nFrame rate                               : 29.970 (29970/1000) FPS\r\nColor space                              : YUV\r\nChroma subsampling                       : 4:2:0\r\nBit depth                                : 8 bits\r\nScan type                                : Progressive\r\nBits/(Pixel*Frame)                       : 0.032\r\nStream size                              : 174 MiB (91%)\r\nSource stream size                       : 174 MiB (91%)\r\nEncoded date                             : UTC 2016-10-08 03:16:11\r\nTagged date                              : UTC 2016-10-08 03:16:11\r\nmdhd_Duration                            : 727560\r\n\r\nAudio\r\nID                                       : 2\r\nFormat                                   : AAC\r\nFormat/Info                              : Advanced Audio Codec\r\nFormat profile                           : LC\r\nCodec ID                                 : 40\r\nDuration                                 : 12 min 7 s\r\nBit rate mode                            : Constant\r\nBit rate                                 : 192 kb/s\r\nChannel(s)                               : 2 channels\r\nChannel positions                        : Front: L R\r\nSampling rate                            : 48.0 kHz\r\nFrame rate                               : 46.875 FPS (1024 spf)\r\nCompression mode                         : Lossy\r\nStream size                              : 16.8 MiB (9%)\r\nEncoded date                             : UTC 2016-10-08 03:16:11\r\nTagged date                              : UTC 2016-10-08 03:16:11\r\nmdhd_Duration                            : 727595","torrent":{"xt":"urn:btih:c9caae034f98af0b3fd66a350666890cabbcfba7","amp;dn":"Funny+Pics+Compilation+Part+10","amp;tr":["udp%3A%2F%2Ftracker.leechers-paradise.org%3A6969","udp%3A%2F%2Fzer0day.ch%3A1337","udp%3A%2F%2Fopen.demonii.com%3A1337","udp%3A%2F%2Ftracker.coppersurfer.tk%3A6969","udp%3A%2F%2Fexodus.desync.com%3A6969"],"infoHash":"c9caae034f98af0b3fd66a350666890cabbcfba7","infoHashBuffer":{"type":"Buffer","data":[201,202,174,3,79,152,175,11,63,214,106,53,6,102,137,12,171,188,251,167]},"announce":[],"urlList":[]}}